<?xml version="1.0" encoding="UTF-8" standalone="no"?>
<svg
   width="128"
   height="128"
   version="1.1"
   id="svg6"
   sodipodi:docname="icon.svg"
   inkscape:version="1.4 (e7c3feb1, 2024-10-09)"
   xmlns:inkscape="http://www.inkscape.org/namespaces/inkscape"
   xmlns:sodipodi="http://sodipodi.sourceforge.net/DTD/sodipodi-0.dtd"
   xmlns="http://www.w3.org/2000/svg"
   xmlns:svg="http://www.w3.org/2000/svg">
  <defs
     id="defs6" />
  <sodipodi:namedview
     id="namedview6"
     pagecolor="#ffffff"
     bordercolor="#000000"
     borderopacity="0.25"
     inkscape:showpageshadow="2"
     inkscape:pageopacity="0.0"
     inkscape:pagecheckerboard="0"
     inkscape:deskcolor="#d1d1d1"
     inkscape:zoom="4.4946154"
     inkscape:cx="86.548006"
     inkscape:cy="77.648468"
     inkscape:window-width="1440"
     inkscape:window-height="787"
     inkscape:window-x="0"
     inkscape:window-y="25"
     inkscape:window-maximized="0"
     inkscape:current-layer="svg6"
     showguides="true">
    <sodipodi:guide
       position="40.087651,75.902283"
       orientation="0,-1"
       id="guide8"
       inkscape:locked="false" />
    <sodipodi:guide
       position="64.142418,137.91676"
       orientation="1,0"
       id="guide9"
       inkscape:locked="false" />
    <sodipodi:guide
       position="16.913283,95.754114"
       orientation="1,0"
       id="guide10"
       inkscape:locked="false" />
    <sodipodi:guide
       position="48.764276,89.87809"
       orientation="1,0"
       id="guide11"
       inkscape:locked="false" />
    <sodipodi:guide
       position="80.691375,88.766201"
       orientation="1,0"
       id="guide12"
       inkscape:locked="false" />
    <sodipodi:guide
       position="-2.8161801,50.379037"
       orientation="0,-1"
       id="guide13"
       inkscape:locked="false" />
  </sodipodi:namedview>
  <rect
     width="124"
     height="124"
     x="2"
     y="2"
     fill="#363d52"
     stroke="#212532"
     stroke-width="4"
     rx="14"
     id="rect1" />
  <path
     style="fill:#000000;fill-opacity:0"
     id="path4"
     d="m 30.250714,64.280345 c 4.467855,-0.5562 8.986378,-0.501748 13.477565,-0.37516 7.008234,0.279559 13.924612,1.49975 20.740863,3.090228 1.853248,0.42052 3.647625,1.044001 5.440951,1.662085 0.863027,0.29745 1.714417,0.57488 2.53987,0.963813 0.396618,0.19878 0.819115,0.294544 1.215862,0.488722 0,0 -11.756212,-9.209785 -11.756212,-9.209785 v 0 C 61.54666,60.809711 61.211952,60.653636 60.85393,60.544099 58.502741,59.907464 56.145213,59.282936 53.742993,58.86548 46.998315,57.684615 40.202827,56.774744 33.368742,56.309693 28.316371,56.018279 23.250866,55.972749 18.20858,55.531222 Z" />
  <a
     id="a13">
    <path
       style="fill:#478cbf;fill-opacity:1;stroke:#000000;stroke-opacity:1"
       d="M 48.672996,48.318929 C 38.656565,51.743904 17.00863,50.748345 17.00863,50.748345 l -0.09626,26.890059 c 0,0 12.523932,3.10552 17.797273,0.38486 7.441817,-3.839435 14.113321,-20.782474 14.113321,-20.782474 0,0 1.801974,14.109054 0.984937,21.103732 -1.654074,14.160577 -11.787008,41.114318 -11.787008,41.114318 0,0 8.651748,3.57963 26.23615,3.5444 17.584402,-0.0352 27.537696,-3.66728 27.537696,-3.66728 0,0 -9.566292,-27.14948 -11.413203,-41.318093 -0.903874,-6.934085 0.215326,-20.977139 0.215326,-20.977139 0,0 4.319558,16.711783 11.04603,20.704701 4.996176,2.965793 17.429668,-0.16188 17.429668,-0.16188 l -0.12263,-26.898465 c 0,0 -20.140263,0.375072 -28.522601,-2.480886 C 78.701458,47.616173 77.302655,44.92525 77.302655,44.92525 H 53.826156 c 0,0 -3.207033,2.728229 -5.15316,3.393679 z"
       id="path7"
       sodipodi:nodetypes="accacaczcacaccscca" />
  </a>
  <path
     style="fill:#fbfcfb;fill-opacity:1;stroke:#000000;stroke-opacity:1"
     d="M 65.792617,57.569561 52.398812,45.565362 48.935066,48.259386 62.225346,60.863323 Z"
     id="path6-7"
     sodipodi:nodetypes="ccccc" />
  <path
     style="fill:#fbfcfb;fill-opacity:1;stroke:#000000;stroke-opacity:1"
     d="m 65.843928,55.287455 11.545819,-10.006376 3.463746,2.694024 -30.40399,28.094826 -2.694024,-3.848606 14.64634,-13.731721 z"
     id="path6"
     sodipodi:nodetypes="ccccccc" />
  <g
     fill="#ffffff"
     transform="matrix(0.04803071,0,0,0.04689959,39.597483,2.6327486)"
     id="g4">
    <path
       d="m 105,673 v 33 q 407,354 814,0 v -33 z"
       id="path1" />
    <path
       fill="#478cbf"
       d="m 105,673 152,14 q 12,1 15,14 l 4,67 132,10 8,-61 q 2,-11 15,-15 h 162 q 13,4 15,15 l 8,61 132,-10 4,-67 q 3,-13 15,-14 L 919,673 V 427 q 30,-39 56,-81 -35,-59 -83,-108 -43,20 -82,47 -40,-37 -88,-64 7,-51 8,-102 -59,-28 -123,-42 -26,43 -46,89 -49,-7 -98,0 -20,-46 -46,-89 -64,14 -123,42 1,51 8,102 -48,27 -88,64 -39,-27 -82,-47 -48,49 -83,108 26,42 56,81 z m 0,33 v 39 c 0,276 813,276 814,0 v -39 l -134,12 -5,69 q -2,10 -14,13 l -162,11 q -12,0 -16,-11 L 578,735 H 446 l -10,65 q -4,11 -16,11 L 258,800 q -12,-3 -14,-13 l -5,-69 z"
       id="path2" />
    <path
       d="m 483,600 c 0,34 58,34 58,0 v -86 c 0,-34 -58,-34 -58,0 z"
       id="path3" />
    <circle
       cx="725"
       cy="526"
       r="90"
       id="circle3" />
    <circle
       cx="299"
       cy="526"
       r="90"
       id="circle4" />
  </g>
  <g
     fill="#414042"
     transform="matrix(0.05078849,0,0,0.04968525,38.243272,0.75052332)"
     id="g6">
    <circle
       cx="307"
       cy="532"
       r="60"
       id="circle5" />
    <circle
       cx="717"
       cy="532"
       r="60"
       id="circle6" />
  </g>
</svg>
